<?xml version="1.0" encoding="UTF-8" standalone="no"?>
<!DOCTYPE svg  PUBLIC '-//W3C//DTD SVG 1.1//EN'  'http://www.w3.org/Graphics/SVG/1.1/DTD/svg11.dtd'>
<svg xmlns="http://www.w3.org/2000/svg">
<defs>
<font id="Circe-ExtraLight" horiz-adv-x="586">
<font-face underline-position="-50" font-weight="300" descent="-200" panose-1="2 11 3 2 2 2 3 2 2 3" units-per-em="1000" unicode-range="U+0020-00FE" bbox="-83 -251 945 860" x-height="450" underline-thickness="50" font-family="Circe" ascent="800" cap-height="700"/>
<missing-glyph horiz-adv-x="1000"/>
<glyph glyph-name=".notdef" horiz-adv-x="1000"/>
<glyph glyph-name=".null" horiz-adv-x="0"/>
<glyph glyph-name="nonmarkingreturn" horiz-adv-x="333"/>
<glyph glyph-name="space" horiz-adv-x="243" unicode=" "/>
<glyph glyph-name="exclam" horiz-adv-x="310" unicode="!" d="M131 24q0 8 7.5 15t17.5 7q9 0 16 -7t7 -15q0 -10 -7 -17.5t-16 -7.5q-10 0 -17.5 7.5t-7.5 17.5zM140 174v526h30v-526h-30z"/>
<glyph glyph-name="quotedbl" horiz-adv-x="389" unicode='&quot;' d="M111 505v195h28v-195h-28zM250 505v195h28v-195h-28z"/>
<glyph glyph-name="numbersign" horiz-adv-x="674" unicode="#" d="M260 457l-79 -214h232l79 214h-232zM323 0l80 217h-232l-83 -226l-24 9l81 217h-105v26h114l80 214h-194v26h203l85 226l22 -9l-80 -217h232l84 226l23 -8l-81 -218h107v-26h-116l-79 -214h195v-26h-205l-83 -226z"/>
<glyph glyph-name="dollar" d="M477 170q0 44 -21 77t-54.5 52t-73.5 34.5t-80.5 31.5t-74 36.5t-54.5 55.5t-21 83q0 71 50 118t138 51v81h28v-82q110 -5 169 -70l-17 -21q-62 63 -168 63q-78 0 -124 -38.5t-46 -101.5q0 -50 28 -85t70 -52t91.5 -36.5t91.5 -38.5t70 -59.5t28 -97.5 q0 -76 -54.5 -124.5t-138.5 -54.5v-92h-28v91q-62 2 -121.5 29t-84.5 70l19 20q30 -41 83.5 -65.5t105.5 -24.5q78 0 133.5 39.5t55.5 110.5z" unicode="$"/>
<glyph glyph-name="percent" horiz-adv-x="827" unicode="%" d="M473 156q0 -58 40.5 -95.5t94.5 -37.5q56 0 95.5 37.5t39.5 95.5t-40 95t-95 37t-95 -37t-40 -95zM446 156q0 68 46.5 112t115.5 44t115.5 -44t46.5 -112q0 -69 -46 -113t-116 -44t-116 44t-46 113zM83 546q0 -58 40.5 -95.5t94.5 -37.5q56 0 95.5 37.5t39.5 95.5t-40 95 t-95 37t-95 -37t-40 -95zM56 546q0 68 46.5 112t115.5 44t115.5 -44t46.5 -112q0 -69 -46 -113t-116 -44t-116 44t-46 113zM144 5l527 704l17 -13l-526 -705z"/>
<glyph glyph-name="ampersand" horiz-adv-x="731" unicode="&amp;" d="M183 575q0 -45 32 -77.5t78 -32.5q45 0 77 32.5t32 77.5t-32 77t-77 32q-46 0 -78 -32t-32 -77zM297 20q132 0 211 122l-225 286q-75 -53 -121 -109t-46 -124q0 -78 53.5 -126.5t127.5 -48.5zM620 0l-94 119q-87 -128 -229 -128q-91 0 -151.5 56.5t-60.5 142.5 q0 134 181 255q-48 8 -79 44t-31 86q0 57 40 95.5t97 38.5q56 0 96 -39t40 -95q0 -53 -36 -91t-87 -40l221 -280q73 124 73 286h28q0 -179 -83 -310l111 -140h-36z"/>
<glyph glyph-name="quotesingle" horiz-adv-x="250" unicode="&apos;" d="M111 505v195h28v-195h-28z"/>
<glyph glyph-name="parenleft" horiz-adv-x="261" unicode="(" d="M261 -190l-19 -16q-202 174 -202 431q0 248 203 431l18 -16q-193 -178 -193 -415q0 -249 193 -415z"/>
<glyph glyph-name="parenright" horiz-adv-x="261" unicode=")" d="M19 -206l-19 16q193 166 193 415q0 237 -193 415l18 16q203 -183 203 -431q0 -257 -202 -431z"/>
<glyph glyph-name="asterisk" horiz-adv-x="449" unicode="*" d="M94 619q0 10 7 17t17 7q9 0 16 -7t7 -17t-7 -16.5t-16 -6.5q-10 0 -17 6.5t-7 16.5zM94 512q0 9 7 16t17 7q9 0 16 -7t7 -16q0 -10 -7 -17t-16 -7q-10 0 -17 7t-7 17zM308 512q0 9 7 16t16 7q10 0 17 -7t7 -16q0 -10 -6.5 -17t-17.5 -7q-9 0 -16 7t-7 17zM308 619 q0 10 7 17t16 7q10 0 17 -7t7 -17t-7 -16.5t-17 -6.5q-9 0 -16 6.5t-7 16.5zM202 446q0 10 7 17t17 7q9 0 16.5 -7t7.5 -17q0 -9 -7.5 -16t-16.5 -7q-10 0 -17 7t-7 16zM203 684q0 10 7 17t17 7q9 0 16.5 -7t7.5 -17q0 -9 -7.5 -16t-16.5 -7q-10 0 -17 7t-7 16z"/>
<glyph glyph-name="plus" d="M73 347v26h206v206h26v-206h208v-26h-208v-208h-26v208h-206z" unicode="+"/>
<glyph glyph-name="comma" horiz-adv-x="181" unicode="," d="M65 21q0 10 7.5 16.5t19.5 6.5q19 0 34 -20.5t15 -54.5q0 -44 -25 -75t-62 -41l-7 15q25 8 46 31.5t23 56.5q1 43 -18 54q-1 -10 -14 -10q-7 0 -13 6.5t-6 14.5z"/>
<glyph glyph-name="hyphen" horiz-adv-x="407" unicode="-" d="M93 257v27h221v-27h-221z"/>
<glyph glyph-name="period" horiz-adv-x="162" unicode="." d="M57 24q0 8 7.5 15t17.5 7q9 0 16 -7t7 -15q0 -10 -7 -17.5t-16 -7.5q-10 0 -17.5 7.5t-7.5 17.5z"/>
<glyph glyph-name="slash" horiz-adv-x="301" unicode="/" d="M-30 -199l338 908l23 -9l-337 -908z"/>
<glyph glyph-name="zero" horiz-adv-x="579" unicode="0" d="M103 350q0 -153 45.5 -242t142.5 -89q185 0 185 331t-187 331q-186 0 -186 -331zM73 350q0 164 53 261t163 97q75 0 124.5 -48t70.5 -125.5t21 -184.5t-20.5 -184.5t-69.5 -125.5t-124 -48q-110 0 -164 97.5t-54 260.5z"/>
<glyph glyph-name="one" horiz-adv-x="366" unicode="1" d="M53 584l152 123h19v-707h-29v664l-125 -102z"/>
<glyph glyph-name="two" horiz-adv-x="531" unicode="2" d="M56 0v24q49 48 81.5 81.5t88 97t89.5 113.5t60.5 110.5t26.5 108.5q0 59 -39.5 102t-111.5 43q-56 0 -103 -35t-57 -105l-25 8q9 76 64.5 118t120.5 42q88 0 134.5 -51t46.5 -116q0 -55 -31 -124t-69.5 -124t-94.5 -118t-84 -90.5t-60 -57.5h372v-27h-409z"/>
<glyph glyph-name="three" horiz-adv-x="534" unicode="3" d="M251 -9q-66 0 -119 30t-79 93l19 18q25 -58 74.5 -85t107.5 -27q79 0 127 48t48 121q0 68 -46.5 111.5t-113.5 43.5h-64v28h57q54 0 97 47t43 113q0 72 -41 110t-110 38q-117 0 -161 -104l-18 15q19 55 67 86.5t113 31.5q84 0 131.5 -46.5t47.5 -129.5q0 -55 -30 -102.5 t-83 -67.5v-3q64 -9 102 -58.5t38 -112.5q0 -89 -58 -143.5t-149 -54.5z"/>
<glyph glyph-name="four" horiz-adv-x="528" unicode="4" d="M354 0v193h-327v17l320 490h33l-313 -478h287v228h28v-228h108v-29h-108v-193h-28z"/>
<glyph glyph-name="five" horiz-adv-x="520" unicode="5" d="M126 378l41 322h293v-28h-269l-34 -262q40 12 79 12q99 0 160.5 -57.5t61.5 -151.5q0 -99 -61 -160.5t-146 -61.5q-61 0 -114 28.5t-84 86.5l19 19q28 -52 77 -78.5t102 -26.5q76 0 127 54.5t51 137.5q0 79 -56 131.5t-145 52.5q-50 0 -102 -18z"/>
<glyph glyph-name="six" horiz-adv-x="547" unicode="6" d="M87 249q0 -95 52.5 -162t148.5 -67q71 0 122 55.5t51 133.5q0 83 -48 137t-135 54q-77 0 -127.5 -46.5t-63.5 -104.5zM57 248q0 92 30 175t78.5 140.5t107 95t118.5 50.5l13 -22q-115 -26 -206 -128.5t-109 -264.5q22 57 73 95t123 38q94 0 149.5 -60t55.5 -156 q0 -92 -60.5 -156t-140.5 -64q-111 0 -171.5 74t-60.5 183z"/>
<glyph glyph-name="seven" horiz-adv-x="466" unicode="7" d="M37 672v28h391v-15l-274 -685h-32l269 672h-354z"/>
<glyph glyph-name="eight" horiz-adv-x="588" unicode="8" d="M294 -9q-88 0 -153 52t-65 138q0 63 41 113t110 64v3q-53 14 -89 63t-36 103q0 81 55 131.5t136 50.5t137 -50.5t56 -131.5q0 -53 -34 -99.5t-92 -65.5v-3q67 -7 109 -56.5t42 -119.5q0 -87 -64.5 -139.5t-152.5 -52.5zM310 346h-29q-72 0 -123.5 -46.5t-51.5 -114.5 q0 -71 55.5 -118t131.5 -47q79 0 134 45.5t55 119.5q0 73 -50 117t-122 44zM276 374h36q54 0 99 44.5t45 107.5q0 71 -49 112.5t-115 41.5q-65 0 -113 -42t-48 -112q0 -63 45.5 -107.5t99.5 -44.5z"/>
<glyph glyph-name="nine" horiz-adv-x="546" unicode="9" d="M459 450q0 96 -48.5 163t-143.5 67q-72 0 -127.5 -54.5t-55.5 -130.5q0 -77 49 -132.5t135 -55.5q77 0 127.5 43t63.5 100zM489 451q0 -190 -94.5 -314t-242.5 -146l-11 23q133 23 219 125.5t97 264.5q-21 -55 -72 -89.5t-123 -34.5q-93 0 -150 62t-57 151 q0 91 64.5 153.5t145.5 62.5q111 0 167.5 -73.5t56.5 -184.5z"/>
<glyph glyph-name="colon" horiz-adv-x="324" unicode=":" d="M138 24q0 8 7.5 15t17.5 7q9 0 16 -7t7 -15q0 -10 -7 -17.5t-16 -7.5q-10 0 -17.5 7.5t-7.5 17.5zM138 436q0 8 7.5 15t17.5 7q9 0 16 -7t7 -15q0 -10 -7 -17.5t-16 -7.5q-10 0 -17.5 7.5t-7.5 17.5z"/>
<glyph glyph-name="semicolon" horiz-adv-x="326" unicode=";" d="M137 21q0 10 7.5 16.5t19.5 6.5q19 0 34 -20.5t15 -54.5q0 -44 -25 -75t-62 -41l-7 15q25 8 46 31.5t23 56.5q1 43 -18 54q-1 -10 -14 -10q-7 0 -13 6.5t-6 14.5zM138 436q0 8 7.5 15t17.5 7q9 0 16 -7t7 -15q0 -10 -7 -17.5t-16 -7.5q-10 0 -17.5 7.5t-7.5 17.5z"/>
<glyph glyph-name="less" d="M473 97l-403 259v12l403 256v-31l-363 -231l363 -233v-32z" unicode="&lt;"/>
<glyph glyph-name="equal" d="M73 264v26h440v-26h-440zM73 430v26h440v-26h-440z" unicode="="/>
<glyph glyph-name="greater" d="M516 356l-403 -259v32l363 233l-363 231v31l403 -256v-12z" unicode="&gt;"/>
<glyph glyph-name="question" horiz-adv-x="455" unicode="?" d="M171 24q0 8 7.5 15t17.5 7q9 0 16 -7t7 -15q0 -10 -7 -17.5t-16 -7.5q-10 0 -17.5 7.5t-7.5 17.5zM388 535q0 63 -46 104t-118 41q-102 0 -166 -88l-18 17q28 44 78.5 72t108.5 28q89 0 139.5 -48.5t50.5 -120.5q0 -44 -15.5 -78t-38.5 -54.5t-50.5 -41.5t-50.5 -38.5 t-38.5 -45t-15.5 -61.5q0 -20 4 -39l-26 -2q-5 21 -5 46q0 42 21.5 74t51.5 53.5t60.5 44t52 57t21.5 80.5z"/>
<glyph glyph-name="at" horiz-adv-x="1021" unicode="@" d="M514 18q47 0 93 25.5t67 55.5v294q-63 39 -144 39q-90 0 -152.5 -60.5t-62.5 -147.5q0 -95 54.5 -150.5t144.5 -55.5zM674 0v67q-28 -32 -73 -54t-91 -22q-101 0 -162.5 64t-61.5 170q0 99 70.5 166.5t174.5 67.5q95 0 171 -48v-384h21q90 0 142.5 70.5t52.5 168.5 q0 159 -113 262.5t-285 103.5q-180 0 -298.5 -117t-118.5 -290q0 -171 119 -289t298 -118q57 0 108 12l5 -26q-58 -13 -113 -13q-192 0 -318 125.5t-126 308.5q0 182 126 308t318 126q184 0 304.5 -110t120.5 -282q0 -108 -59.5 -187.5t-167.5 -79.5h-44z"/>
<glyph glyph-name="A" horiz-adv-x="690" unicode="A" d="M344 663l-163 -375h326zM26 0l308 707h22l308 -707h-32l-113 260h-350l-112 -260h-31z"/>
<glyph glyph-name="B" horiz-adv-x="617" unicode="B" d="M291 674q-83 0 -145 -2v-299h156q76 0 127.5 42t51.5 111q0 148 -190 148zM296 346h-150v-318q14 0 68 -1t80 -1q103 0 159.5 42t56.5 126q0 72 -55.5 112t-158.5 40zM116 0v700q17 0 81.5 1t95.5 1q218 0 218 -172q0 -69 -43 -112t-107 -54v-2q86 -8 132.5 -52 t46.5 -118q0 -99 -67 -146.5t-179 -47.5q-30 0 -95 1t-83 1z"/>
<glyph glyph-name="C" horiz-adv-x="657" unicode="C" d="M606 90l13 -23q-36 -35 -94.5 -55.5t-120.5 -20.5q-155 0 -251 98.5t-96 260.5q0 154 94 256.5t244 102.5q132 0 211 -65l-15 -21q-72 57 -195 57q-137 0 -222.5 -94t-85.5 -236q0 -148 88.5 -239t229.5 -91q118 0 200 70z"/>
<glyph glyph-name="D" horiz-adv-x="735" unicode="D" d="M283 675q-32 0 -73.5 -1.5t-63.5 -1.5v-644h38t36 -0.5t29 -1t20.5 -0.5h8.5q177 0 273 94.5t96 240.5q0 138 -90.5 226t-273.5 88zM116 0v700h11q25 0 74.5 1.5t83.5 1.5q102 0 179 -27.5t123 -76t68.5 -108.5t22.5 -130q0 -158 -104.5 -260.5t-296.5 -102.5 q-28 0 -77.5 1t-76.5 1h-7z"/>
<glyph glyph-name="E" horiz-adv-x="575" unicode="E" d="M116 0v700h380v-28h-350v-302h320v-28h-320v-314h360v-28h-390z"/>
<glyph glyph-name="F" horiz-adv-x="544" unicode="F" d="M116 0v700h388v-28h-358v-322h328v-28h-328v-322h-30z"/>
<glyph glyph-name="G" horiz-adv-x="727" unicode="G" d="M413 296v28h247v-237q-45 -45 -119 -70.5t-143 -25.5q-152 0 -246.5 98.5t-94.5 260.5q0 153 93.5 256t242.5 103q132 0 214 -65l-15 -23q-70 59 -195 59q-138 0 -223.5 -94t-85.5 -236q0 -149 86.5 -239.5t225.5 -90.5q64 0 129 22.5t102 59.5v194h-218z"/>
<glyph glyph-name="H" horiz-adv-x="772" unicode="H" d="M627 0v343h-481v-343h-30v700h30v-329h481v329h29v-700h-29z"/>
<glyph glyph-name="I" horiz-adv-x="316" unicode="I" d="M143 0v700h30v-700h-30z"/>
<glyph glyph-name="J" horiz-adv-x="350" unicode="J" d="M233 700v-550q0 -77 -29 -118t-100 -41q-52 0 -87 29l12 23q31 -23 72 -23q60 0 81.5 35t21.5 98v547h29z"/>
<glyph glyph-name="K" horiz-adv-x="624" unicode="K" d="M116 0v700h30v-700h-30zM577 700l-344 -333l356 -367h-43l-354 365l344 335h41z"/>
<glyph glyph-name="L" horiz-adv-x="554" unicode="L" d="M116 0v700h30v-672h389v-28h-419z"/>
<glyph glyph-name="M" horiz-adv-x="877" unicode="M" d="M116 0v700h31l297 -405l288 405h29v-700h-29v655l-287 -404h-5l-294 401v-652h-30z"/>
<glyph glyph-name="N" horiz-adv-x="799" unicode="N" d="M683 0h-24l-515 646v-646h-28v700h24l514 -648v648h29v-700z"/>
<glyph glyph-name="O" horiz-adv-x="807" unicode="O" d="M88 350q0 -141 90.5 -235.5t224.5 -94.5q135 0 225 94.5t90 235.5t-90.5 235.5t-224.5 94.5t-224.5 -94.5t-90.5 -235.5zM57 350q0 152 99 255.5t247 103.5q147 0 246.5 -102.5t99.5 -256.5q0 -153 -99.5 -256t-246.5 -103t-246.5 102.5t-99.5 256.5z"/>
<glyph glyph-name="P" horiz-adv-x="575" unicode="P" d="M279 674q-67 0 -133 -2v-352q72 -5 123 -5q107 0 162.5 50.5t55.5 131.5q0 80 -50.5 128.5t-157.5 48.5zM146 0h-30v700q20 0 81 1t79 1q69 0 118 -17.5t74.5 -48.5t37 -65t11.5 -75q0 -88 -61 -148.5t-185 -60.5q-53 0 -125 5v-292z"/>
<glyph glyph-name="Q" horiz-adv-x="807" unicode="Q" d="M88 350q0 -141 90.5 -235.5t224.5 -94.5q107 0 187 61l-61 75l19 18l64 -76q106 96 106 252q0 141 -90.5 235.5t-224.5 94.5t-224.5 -94.5t-90.5 -235.5zM57 350q0 152 99 255.5t247 103.5q147 0 246.5 -102.5t99.5 -256.5q0 -169 -118 -274l64 -76h-38l-48 58 q-91 -67 -206 -67q-147 0 -246.5 102.5t-99.5 256.5z"/>
<glyph glyph-name="R" horiz-adv-x="621" unicode="R" d="M265 674q-53 0 -119 -2v-338h136q75 0 135.5 49.5t60.5 122.5q0 168 -213 168zM146 0h-30v700q22 0 82.5 1t68.5 1q242 0 242 -196q0 -71 -49 -125t-128 -69l254 -312h-37l-249 306h-154v-306z"/>
<glyph glyph-name="S" horiz-adv-x="543" unicode="S" d="M455 170q0 44 -21 77t-54.5 52t-73.5 34.5t-80.5 31.5t-74 36.5t-54.5 55.5t-21 83q0 74 53.5 121.5t146.5 47.5q56 0 105.5 -19.5t78.5 -51.5l-17 -21q-62 63 -168 63q-77 0 -122.5 -38.5t-45.5 -101.5q0 -50 28 -85t70 -52t91.5 -36.5t91.5 -38.5t70 -59.5t28 -97.5 q0 -81 -62.5 -130.5t-156.5 -49.5q-62 0 -123 27.5t-87 71.5l19 20q30 -41 83.5 -65.5t105.5 -24.5q78 0 134 39.5t56 110.5z"/>
<glyph glyph-name="T" horiz-adv-x="591" unicode="T" d="M10 672v28h571v-28h-271v-672h-29v672h-271z"/>
<glyph glyph-name="U" horiz-adv-x="751" unicode="U" d="M645 700v-406q0 -151 -73.5 -226t-186.5 -75q-124 0 -201.5 80t-77.5 228v399h30v-395q0 -135 69 -209.5t180 -74.5q103 0 166.5 70t63.5 210v399h30z"/>
<glyph glyph-name="V" horiz-adv-x="656" unicode="V" d="M640 700l-299 -707h-19l-306 707h32l285 -660l276 660h31z"/>
<glyph glyph-name="W" horiz-adv-x="948" unicode="W" d="M930 700l-205 -700h-23l-226 647l-220 -647h-23l-216 700h33l197 -641l218 641h24l224 -642l188 642h29z"/>
<glyph glyph-name="X" horiz-adv-x="657" unicode="X" d="M613 700l-265 -344l274 -356h-36l-258 333l-257 -333h-36l275 356l-264 344h36l247 -321l248 321h36z"/>
<glyph glyph-name="Y" horiz-adv-x="567" unicode="Y" d="M550 700l-253 -389v-311h-29v311l-251 389h35l231 -361l233 361h34z"/>
<glyph glyph-name="Z" horiz-adv-x="624" unicode="Z" d="M60 672v28h514v-16l-491 -656h501v-28h-544v16l490 656h-470z"/>
<glyph glyph-name="bracketleft" horiz-adv-x="276" unicode="[" d="M60 -200v850h213v-27h-185v-796h185v-27h-213z"/>
<glyph glyph-name="backslash" horiz-adv-x="301" unicode="\" d="M-7 709l338 -908l-24 -9l-337 908z"/>
<glyph glyph-name="bracketright" horiz-adv-x="276" unicode="]" d="M216 650v-850h-213v27h184v796h-184v27h213z"/>
<glyph glyph-name="asciicircum" horiz-adv-x="470" unicode="^" d="M55 450l172 258h17l171 -258h-32l-147 226l-150 -226h-31z"/>
<glyph glyph-name="underscore" horiz-adv-x="266" unicode="_" d="M0 -200v28h266v-28h-266z"/>
<glyph glyph-name="grave" horiz-adv-x="250" unicode="`" d="M172 552l-112 141l21 17l109 -146z"/>
<glyph glyph-name="a" horiz-adv-x="457" unicode="a" d="M193 22q42 0 76 14.5t50 30.5t35 40v90q-56 40 -134 40q-58 0 -100.5 -28t-42.5 -83q0 -48 33 -76t83 -28zM91 394l-9 24q65 41 138 41q87 0 124.5 -45t37.5 -133v-281h-28v78q-61 -83 -167 -83q-63 0 -101.5 35.5t-38.5 93.5q0 65 47.5 101t123.5 36q84 0 136 -37 q0 37 -1 59t-5 49.5t-13 43t-24 30t-38.5 20.5t-55.5 6q-61 0 -126 -38z"/>
<glyph glyph-name="b" horiz-adv-x="550" unicode="b" d="M279 432q-50 0 -96.5 -24.5t-68.5 -54.5v-289q64 -46 146 -46q91 0 150 57t59 153q0 93 -51 148.5t-139 55.5zM85 46v654h29v-316q28 32 75 53.5t95 21.5q100 0 157.5 -63t57.5 -164q0 -110 -67 -175.5t-174 -65.5q-104 0 -173 55z"/>
<glyph glyph-name="c" horiz-adv-x="491" unicode="c" d="M439 83l14 -19q-28 -35 -72.5 -54t-93.5 -19q-104 0 -169.5 64t-65.5 170q0 98 63.5 166t156.5 68q113 0 172 -55l-14 -23q-58 51 -153 51q-81 0 -138.5 -59.5t-57.5 -147.5q0 -94 58.5 -150.5t149.5 -56.5q45 0 85 18t65 47z"/>
<glyph glyph-name="d" horiz-adv-x="553" unicode="d" d="M279 19q46 0 91 25t69 55v287q-66 46 -144 46q-91 0 -152.5 -58t-61.5 -149q0 -94 54.5 -150t143.5 -56zM439 0v71q-29 -34 -73 -56.5t-91 -22.5q-101 0 -162 63t-61 169q0 103 69.5 169t173.5 66q84 0 144 -45v286h28v-700h-28z"/>
<glyph glyph-name="e" horiz-adv-x="527" unicode="e" d="M271 432q-84 0 -134 -50.5t-56 -131.5h366q1 84 -47 133t-129 49zM441 80l11 -21q-28 -33 -72.5 -50.5t-91.5 -17.5q-104 0 -170 64t-66 170q0 103 58 168.5t165 65.5q88 0 144.5 -55.5t56.5 -146.5q0 -13 -2 -31h-391q1 -96 57 -152t149 -56q95 0 152 62z"/>
<glyph glyph-name="f" horiz-adv-x="338" unicode="f" d="M103 0v523q0 186 153 186q69 0 112 -37l-11 -22q-44 32 -98 32q-128 0 -128 -168v-64h191v-27h-191v-423h-28z"/>
<glyph glyph-name="g" horiz-adv-x="487" unicode="g" d="M95 301q0 -57 40 -93.5t103 -36.5t103 36.5t40 93.5t-40 94t-103 37t-103 -37t-40 -94zM47 -69q0 -52 52.5 -82t139.5 -30q88 0 140 29.5t52 82.5t-52.5 83.5t-139.5 30.5t-139.5 -30.5t-52.5 -83.5zM17 -69q0 52 37 86t103 47q-17 19 -17 46q0 30 19 49q-44 19 -69 56.5 t-25 85.5q0 68 48.5 113t124.5 45q68 0 113 -36l126 35v-27l-103 -28q37 -42 37 -102q0 -68 -48 -112.5t-125 -44.5q-33 0 -57 7q-14 -15 -14 -41t18 -42q34 4 54 4q101 0 161.5 -37t60.5 -104t-60.5 -103t-161.5 -36t-161.5 36t-60.5 103z"/>
<glyph glyph-name="h" horiz-adv-x="553" unicode="h" d="M85 0v700h29v-318q28 33 76.5 54.5t96.5 21.5q96 0 143 -49.5t47 -154.5v-254h-28v248q0 93 -41 138t-126 45q-50 0 -97.5 -23t-70.5 -54v-354h-29z"/>
<glyph glyph-name="i" horiz-adv-x="255" unicode="i" d="M105 629q0 9 7 15.5t16 6.5q8 0 14.5 -6.5t6.5 -15.5q0 -10 -6.5 -16.5t-14.5 -6.5q-9 0 -16 6.5t-7 16.5zM113 0v450h28v-450h-28z"/>
<glyph glyph-name="j" horiz-adv-x="257" unicode="j" d="M106 629q0 9 7 15.5t16 6.5q8 0 14.5 -6.5t6.5 -15.5q0 -10 -6.5 -16.5t-14.5 -6.5q-9 0 -16 6.5t-7 16.5zM143 450v-483q0 -175 -141 -175q-49 0 -85 26l10 23q32 -22 71 -22q117 0 117 149v482h28z"/>
<glyph glyph-name="k" horiz-adv-x="457" unicode="k" d="M85 0v700h29v-700h-29zM414 450l-225 -213l244 -237h-40l-240 235l223 215h38z"/>
<glyph glyph-name="l" horiz-adv-x="276" unicode="l" d="M85 113v587h29v-566q0 -58 16.5 -84.5t56.5 -26.5q39 0 70 23l9 -23q-37 -27 -87 -27q-49 0 -71.5 28.5t-22.5 88.5z"/>
<glyph glyph-name="m" horiz-adv-x="807" unicode="m" d="M731 296v-296h-28v288q0 143 -128 143q-51 0 -91 -23t-64 -61q2 -8 2 -31v-316h-28v316q0 52 -33.5 83.5t-94.5 31.5q-48 0 -89 -23.5t-63 -55.5v-352h-29v450h29v-68q25 34 69.5 55t90.5 21q54 0 91.5 -23t50.5 -64q24 39 70.5 63t96.5 24q148 0 148 -162z"/>
<glyph glyph-name="n" horiz-adv-x="553" unicode="n" d="M85 0v450h29v-68q28 32 76.5 54t96.5 22q96 0 143 -49.5t47 -154.5v-254h-28v248q0 93 -41 138t-126 45q-50 0 -97 -23t-71 -54v-354h-29z"/>
<glyph glyph-name="o" horiz-adv-x="569" unicode="o" d="M81 225q0 -91 57 -149t146 -58t146 58t57 149t-57 149t-146 58t-146 -58t-57 -149zM52 225q0 102 65 168t167 66t167.5 -66t65.5 -168t-65.5 -168t-167.5 -66t-167 66t-65 168z"/>
<glyph glyph-name="p" horiz-adv-x="552" unicode="p" d="M281 432q-51 0 -97.5 -22.5t-69.5 -53.5v-290q67 -48 157 -48q89 0 144.5 59t55.5 152q0 92 -50.5 147.5t-139.5 55.5zM85 -200v650h29v-66q27 33 75 54t98 21q99 0 156.5 -63t57.5 -164q0 -104 -63.5 -172.5t-165.5 -68.5q-98 0 -158 45v-236h-29z"/>
<glyph glyph-name="q" horiz-adv-x="553" unicode="q" d="M281 18q47 0 92.5 23.5t66.5 52.5v299q-63 39 -144 39q-90 0 -152.5 -60.5t-62.5 -147.5q0 -94 54.5 -150t145.5 -56zM440 -200v262q-28 -31 -72.5 -51t-89.5 -20q-102 0 -164 64t-62 170q0 99 70.5 166.5t174.5 67.5q95 0 171 -48v-611h-28z"/>
<glyph glyph-name="r" horiz-adv-x="320" unicode="r" d="M85 0v450h29v-65q47 73 127 73q47 0 70 -17l-9 -27q-29 17 -65 17q-74 0 -123 -79v-352h-29z"/>
<glyph glyph-name="s" horiz-adv-x="409" unicode="s" d="M323 114q0 31 -19 51.5t-47 30.5t-61 22t-61 24t-47 38.5t-19 65.5q0 50 37.5 81.5t99.5 31.5q39 0 74.5 -13.5t54.5 -34.5l-14 -21q-41 43 -116 43q-48 0 -77.5 -25t-29.5 -61q0 -33 19 -55t47 -32.5t61 -22t61 -23t47 -37t19 -61.5q0 -61 -43 -93t-108 -32 q-42 0 -85.5 19t-59.5 43l18 18q17 -24 55 -39t73 -15q50 0 85.5 25t35.5 72z"/>
<glyph glyph-name="t" horiz-adv-x="344" unicode="t" d="M75 171v404h29v-125h194v-27h-194v-243q0 -80 27.5 -119t89.5 -39q41 0 73 24l12 -23q-40 -28 -90 -28q-74 0 -107.5 44t-33.5 132z"/>
<glyph glyph-name="u" horiz-adv-x="547" unicode="u" d="M462 450v-450h-28v78q-29 -36 -79 -61.5t-102 -25.5q-178 0 -178 203v256h29v-249q0 -93 38 -138t120 -45q51 0 99 27.5t73 61.5v343h28z"/>
<glyph glyph-name="v" horiz-adv-x="469" unicode="v" d="M452 450l-206 -457h-17l-213 457h33l147 -318q30 -68 43 -97q23 58 43 101l140 314h30z"/>
<glyph glyph-name="w" horiz-adv-x="684" unicode="w" d="M666 450l-147 -457h-21l-135 356q-14 38 -20 58q-4 -10 -11 -30.5t-11 -31.5l-132 -352h-19l-153 457h31l113 -342q5 -13 12.5 -38t8.5 -29q5 12 13 34.5t12 32.5l126 342h21l128 -340l26 -70q7 25 23 75l106 335h29z"/>
<glyph glyph-name="x" horiz-adv-x="485" unicode="x" d="M439 450l-177 -218l187 -232h-35l-172 212l-172 -212h-34l187 231l-177 219h35l161 -200l163 200h34z"/>
<glyph glyph-name="y" horiz-adv-x="472" unicode="y" d="M455 450l-184 -450q-48 -117 -84.5 -158.5t-82.5 -41.5q-32 0 -70 19l10 22q33 -15 56 -15q39 0 70 35t64 115l10 24l-227 450h33l173 -345q19 -36 35 -73q9 25 29 75l136 343h32z"/>
<glyph glyph-name="z" horiz-adv-x="478" unicode="z" d="M64 423v27h365v-16l-338 -407h333v-27h-375v16l336 407h-321z"/>
<glyph glyph-name="braceleft" horiz-adv-x="294" unicode="{" d="M110 -80v194q0 52 -26 75t-61 23h-3v26q35 0 62.5 25t27.5 85v179q0 60 25 91.5t84 31.5h55v-27h-50q-46 0 -66 -24.5t-20 -78.5v-180q0 -48 -20.5 -78.5t-54.5 -35.5q75 -9 75 -114v-184q0 -101 92 -101h44v-27h-52q-112 0 -112 120z"/>
<glyph glyph-name="bar" horiz-adv-x="315" unicode="|" d="M143 0v700h29v-700h-29z"/>
<glyph glyph-name="braceright" horiz-adv-x="294" unicode="}" d="M184 114v-194q0 -120 -112 -120h-52v27h44q92 0 92 101v184q0 105 75 114q-34 5 -54.5 35.5t-20.5 78.5v180q0 54 -20 78.5t-66 24.5h-50v27h55q59 0 84 -31t25 -92v-179q0 -60 27.5 -85t62.5 -25v-26h-3q-35 0 -61 -23t-26 -75z"/>
<glyph glyph-name="asciitilde" d="M79 335l-16 19q60 57 121 57q42 0 117 -37t113 -37q48 0 95 46l14 -20q-55 -52 -110 -52q-40 0 -115.5 37.5t-114.5 37.5q-51 0 -104 -51z" unicode="~"/>
<glyph glyph-name="uni00A0" horiz-adv-x="243" unicode=" "/>
<glyph glyph-name="exclamdown" horiz-adv-x="310" unicode="¡" d="M180 434q0 -8 -7.5 -15t-17.5 -7q-9 0 -16 7t-7 15q0 10 7 17.5t16 7.5q10 0 17.5 -7.5t7.5 -17.5zM171 284v-526h-30v526h30z"/>
<glyph glyph-name="cent" d="M481 83l14 -19q-55 -70 -160 -73v-111h-28v112q-96 7 -154.5 70t-58.5 163q0 96 61 163.5t152 70.5v109h28v-110q98 -5 151 -54l-14 -23q-58 51 -153 51q-81 0 -138.5 -59.5t-57.5 -147.5q0 -94 58.5 -150.5t149.5 -56.5q45 0 85 18t65 47z" unicode="¢"/>
<glyph glyph-name="sterling" d="M85 290v24h78q-5 16 -22 52.5t-25.5 70t-8.5 77.5q0 78 55 136t146 58q56 0 105 -19.5t78 -51.5l-16 -21q-64 64 -169 64q-74 0 -121.5 -50.5t-47.5 -116.5q0 -43 9 -76t25.5 -68t22.5 -55h181v-24h-175q6 -26 6 -57q0 -90 -51 -160q15 3 30 3q40 0 115 -26t112 -26 q60 0 112 49l15 -21q-57 -56 -129 -56q-38 0 -114 26t-114 26q-62 0 -118 -55l-15 22q34 32 72 49q56 66 56 166q0 28 -7 60h-85z" unicode="£"/>
<glyph glyph-name="currency" d="M99 349q0 -84 53.5 -143t141.5 -59t141.5 59t53.5 143t-53.5 142.5t-141.5 58.5t-141.5 -59t-53.5 -142zM72 349q0 86 53 150l-95 96l18 18l95 -95q60 58 151 58q90 0 151 -58l101 101l18 -18l-101 -102q53 -64 53 -150t-53 -150l96 -98l-18 -18l-96 97q-60 -58 -151 -58 t-151 57l-103 -102l-18 18l103 104q-53 64 -53 150z" unicode="¤"/>
<glyph glyph-name="yen" d="M73 310v25h189l-231 365h35l227 -361l228 361h34l-233 -365h190v-25h-205v-138h205v-24h-205v-148h-30v148h-204v24h204v138h-204z" unicode="¥"/>
<glyph glyph-name="brokenbar" horiz-adv-x="315" unicode="¦" d="M143 260h29v-260h-29v260zM172 440h-29v260h29v-260z"/>
<glyph glyph-name="section" horiz-adv-x="524" unicode="§" d="M104 249q0 -66 47.5 -110t110.5 -44q65 0 111.5 44t46.5 110q0 67 -46.5 111t-111.5 44t-111.5 -44t-46.5 -111zM76 249q0 70 43 119t112 59q-44 18 -74.5 52.5t-30.5 82.5q0 60 40.5 99t105.5 39q80 0 124 -58l-17 -20q-15 16 -23 23.5t-31.5 17.5t-53.5 10 q-49 0 -83 -33t-34 -81t35 -81t85 -50q76 -4 125 -54t49 -125q0 -69 -43 -118t-112 -59q44 -19 73.5 -53t29.5 -81q0 -60 -40.5 -99t-105.5 -39q-80 0 -124 58l17 20q15 -16 23 -23.5t31.5 -17.5t53.5 -10q49 0 83 33t34 81t-35 80.5t-85 48.5q-75 5 -123.5 55t-48.5 124z "/>
<glyph glyph-name="dieresis" horiz-adv-x="374" unicode="¨" d="M271 626q0 8 6.5 14.5t15.5 6.5q8 0 14.5 -6.5t6.5 -14.5q0 -10 -6 -16.5t-15 -6.5t-15.5 6.5t-6.5 16.5zM60 626q0 8 6.5 14.5t15.5 6.5q8 0 14 -6.5t6 -14.5q0 -10 -6 -16.5t-14 -6.5q-9 0 -15.5 6.5t-6.5 16.5z"/>
<glyph glyph-name="copyright" horiz-adv-x="1018" unicode="©" d="M669 83l14 -19q-28 -35 -72.5 -54t-93.5 -19q-104 0 -169.5 64t-65.5 170q0 98 63.5 166t156.5 68q113 0 172 -55l-14 -23q-58 51 -153 51q-81 0 -138.5 -59.5t-57.5 -147.5q0 -94 58.5 -150.5t149.5 -56.5q45 0 85 18t65 47zM104 221q0 -169 116 -287t289 -118t289 118 t116 287t-116 287t-289 118t-289 -118t-116 -287zM79 221q0 180 123 305t307 125t307 -125t123 -305t-123 -305t-307 -125t-307 125t-123 305z"/>
<glyph glyph-name="ordfeminine" horiz-adv-x="395" unicode="ª" d="M176 371q71 0 116 53v68q-44 27 -107 27q-42 0 -71.5 -20t-29.5 -55q0 -32 27 -52.5t65 -20.5zM104 604l-14 17q44 37 106 37q59 0 90.5 -30.5t31.5 -87.5v-189h-26v54q-41 -57 -124 -57q-49 0 -80 27.5t-31 66.5q0 46 33 71.5t90 25.5q70 0 112 -28v23q0 101 -101 101 q-44 0 -87 -31z"/>
<glyph glyph-name="guillemotleft" horiz-adv-x="485" unicode="«" d="M231 43l-175 205v4l176 203l19 -17l-163 -188l161 -189zM391 43l-175 205v4l176 203l19 -17l-163 -188l161 -189z"/>
<glyph glyph-name="logicalnot" d="M71 347v26h444v-157h-25v131h-419z" unicode="¬"/>
<glyph glyph-name="uni00AD" horiz-adv-x="407" unicode="­" d="M93 257v27h221v-27h-221z"/>
<glyph glyph-name="registered" horiz-adv-x="551" unicode="®" d="M265 622h-47v-125h54q27 0 49 18t22 46q0 29 -20 45t-58 16zM218 360h-22v280h71q98 0 98 -79q0 -28 -19 -50t-51 -29l97 -122h-28l-94 119h-52v-119zM82 496q0 -80 57 -137t137 -57t137 57t57 137t-57 137t-137 57t-137 -57t-57 -137zM57 496q0 91 64 154.5t155 63.5 t154.5 -63.5t63.5 -154.5t-63.5 -154.5t-154.5 -63.5t-155 63.5t-64 154.5z"/>
<glyph glyph-name="macron" horiz-adv-x="362" unicode="¯" d="M60 624v25h242v-25h-242z"/>
<glyph glyph-name="degree" horiz-adv-x="388" unicode="°" d="M83 570q0 -46 32.5 -78.5t78.5 -32.5t78.5 32.5t32.5 78.5t-32.5 78.5t-78.5 32.5t-78.5 -32.5t-32.5 -78.5zM57 570q0 57 40 96.5t97 39.5t96.5 -39t39.5 -96t-40 -97.5t-96 -40.5q-57 0 -97 40t-40 97z"/>
<glyph glyph-name="plusminus" d="M73 180v26h440v-26h-440zM73 421v26h206v205h26v-205h208v-26h-208v-153h-26v153h-206z" unicode="±"/>
<glyph glyph-name="twosuperior" horiz-adv-x="330" unicode="²" d="M42 350v20q3 2 31 22.5t39.5 29.5t37.5 30.5t39 36.5t29.5 35t23.5 39.5t7 38.5q0 34 -22 56.5t-64 22.5q-32 0 -59.5 -17.5t-33.5 -50.5l-22 7q6 39 40 61.5t75 22.5q56 0 84.5 -29t28.5 -73q0 -99 -198 -229h218v-23h-254z"/>
<glyph glyph-name="threesuperior" horiz-adv-x="335" unicode="³" d="M160 346q-93 0 -124 64l17 13q26 -55 106 -55q46 0 73.5 22.5t27.5 56.5q0 31 -26 51t-65 20h-38v21h34q31 0 55.5 21.5t24.5 52.5q0 34 -23.5 51.5t-63.5 17.5q-71 0 -96 -52l-15 14q26 60 114 60q52 0 81.5 -23t29.5 -64q0 -28 -18.5 -52t-51.5 -33v-1q39 -4 62 -29 t23 -57q0 -45 -36 -72t-91 -27z"/>
<glyph glyph-name="acute" horiz-adv-x="250" unicode="´" d="M190 693l-112 -141l-18 12l109 146z"/>
<glyph glyph-name="paragraph" horiz-adv-x="417" unicode="¶" d="M56 481q0 102 54 160.5t149 58.5h120v-27h-94v-715q0 -81 -30 -123.5t-102 -42.5q-52 0 -89 29l13 22q32 -24 74 -24q62 0 84 36.5t22 101.5v306q-88 1 -144.5 59.5t-56.5 158.5z"/>
<glyph glyph-name="periodcentered" horiz-adv-x="243" unicode="·" d="M97 295q0 8 7.5 15t17.5 7q9 0 16 -7t7 -15q0 -10 -7 -17.5t-16 -7.5q-10 0 -17.5 7.5t-7.5 17.5z"/>
<glyph glyph-name="cedilla" horiz-adv-x="312" unicode="¸" d="M60 -178l10 17q38 -20 73 -20q36 0 58.5 15t22.5 39q0 54 -82 54h-6v73h19v-56q97 -1 97 -72q0 -33 -28.5 -53t-77.5 -20q-38 0 -86 23z"/>
<glyph glyph-name="onesuperior" horiz-adv-x="228" unicode="¹" d="M32 640l93 63h17v-353h-25v320l-74 -49z"/>
<glyph glyph-name="ordmasculine" horiz-adv-x="442" unicode="º" d="M86 502q0 -58 40.5 -95.5t94.5 -37.5q56 0 95.5 37.5t39.5 95.5t-40 95t-95 37t-95 -37t-40 -95zM59 502q0 68 46.5 112t115.5 44t115.5 -44t46.5 -112q0 -69 -46 -113t-116 -44t-116 44t-46 113z"/>
<glyph glyph-name="guillemotright" horiz-adv-x="485" unicode="»" d="M268 248l-174 -205l-19 18l161 189l-163 188l19 17l176 -203v-4zM428 248l-174 -205l-19 18l161 189l-163 188l19 17l176 -203v-4z"/>
<glyph glyph-name="onequarter" horiz-adv-x="643" unicode="¼" d="M535 0v93h-196v16l189 241h25l-184 -235h166v110h24v-110h64v-22h-64v-93h-24zM57 5l527 704l17 -13l-526 -705zM49 640l93 63h17v-353h-25v320l-74 -49z"/>
<glyph glyph-name="onehalf" horiz-adv-x="659" unicode="½" d="M365 0v20q3 2 31 22.5t39.5 29.5t37.5 30.5t39 36.5t29.5 35t23.5 39.5t7 38.5q0 34 -22 56.5t-64 22.5q-32 0 -59.5 -17.5t-33.5 -50.5l-22 7q6 39 40 61.5t75 22.5q56 0 84.5 -29t28.5 -73q0 -99 -198 -229h218v-23h-254zM23 5l527 704l17 -13l-526 -705zM49 640l93 63 h17v-353h-25v320l-74 -49z"/>
<glyph glyph-name="threequarters" horiz-adv-x="679" unicode="¾" d="M161 346q-93 0 -124 64l17 13q26 -55 106 -55q46 0 73.5 22.5t27.5 56.5q0 31 -26 51t-65 20h-38v21h34q31 0 55.5 21.5t24.5 52.5q0 34 -23.5 51.5t-63.5 17.5q-71 0 -96 -52l-15 14q26 60 114 60q52 0 81.5 -23t29.5 -64q0 -28 -18.5 -52t-51.5 -33v-1q39 -4 62 -29 t23 -57q0 -45 -36 -72t-91 -27zM570 0v93h-196v16l189 241h25l-184 -235h166v110h24v-110h64v-22h-64v-93h-24zM103 5l527 704l17 -13l-526 -705z"/>
<glyph glyph-name="questiondown" horiz-adv-x="455" unicode="¿" d="M284 434q0 -8 -7.5 -15t-17.5 -7q-9 0 -16 7t-7 15q0 10 7 17.5t16 7.5q10 0 17.5 -7.5t7.5 -17.5zM67 -77q0 -63 46 -104t118 -41q102 0 166 88l18 -17q-28 -44 -78.5 -72t-108.5 -28q-89 0 -139.5 48.5t-50.5 120.5q0 51 21.5 89.5t52 61.5t61.5 44.5t52.5 52.5 t21.5 71q0 20 -4 39l26 2q5 -21 5 -46q0 -42 -21.5 -74t-52 -53.5t-60.5 -44t-51.5 -57t-21.5 -80.5z"/>
<glyph glyph-name="Agrave" horiz-adv-x="690" unicode="À" d="M372 740l-166 89l11 23l165 -94zM344 663l-163 -375h326zM26 0l308 707h22l308 -707h-32l-113 260h-350l-112 -260h-31z"/>
<glyph glyph-name="Aacute" horiz-adv-x="690" unicode="Á" d="M488 829l-167 -89l-9 18l165 94zM344 663l-163 -375h326zM26 0l308 707h22l308 -707h-32l-113 260h-350l-112 -260h-31z"/>
<glyph glyph-name="Acircumflex" horiz-adv-x="690" unicode="Â" d="M177 757l166 94h4l167 -93l-15 -18l-154 85l-155 -85zM344 663l-163 -375h326zM26 0l308 707h22l308 -707h-32l-113 260h-350l-112 -260h-31z"/>
<glyph glyph-name="Atilde" horiz-adv-x="690" unicode="Ã" d="M193 772l-11 18q39 35 81 35q31 0 83 -24t78 -24q41 0 73 35l11 -19q-38 -41 -85 -41q-28 0 -81.5 23.5t-82.5 23.5q-33 0 -66 -27zM344 663l-163 -375h326zM26 0l308 707h22l308 -707h-32l-113 260h-350l-112 -260h-31z"/>
<glyph glyph-name="Adieresis" horiz-adv-x="690" unicode="Ä" d="M439 796q0 9 7 15t17 6q9 0 15.5 -6t6.5 -15q0 -10 -6.5 -16t-15.5 -6q-24 0 -24 22zM205 796q0 9 7 15t17 6q9 0 16 -6t7 -15q0 -10 -7 -16t-16 -6q-24 0 -24 22zM344 663l-163 -375h326zM26 0l308 707h22l308 -707h-32l-113 260h-350l-112 -260h-31z"/>
<glyph glyph-name="Aring" horiz-adv-x="690" unicode="Å" d="M267 779q0 -31 21.5 -47.5t55.5 -16.5q35 0 57 16.5t22 47.5t-22 46.5t-57 15.5t-56 -15.5t-21 -46.5zM344 663l-163 -375h326zM244 779q0 40 28 60.5t72 20.5q45 0 73.5 -20.5t28.5 -60.5q0 -35 -24 -56.5t-62 -25.5l304 -697h-32l-113 260h-350l-112 -260h-31l303 697 q-38 4 -61.5 25.5t-23.5 56.5z"/>
<glyph glyph-name="AE" horiz-adv-x="964" unicode="Æ" d="M504 656l-256 -361h256v361zM895 0h-391v267h-276l-189 -267h-36l501 700h381v-28h-351v-302h321v-28h-321v-314h361v-28z"/>
<glyph glyph-name="Ccedilla" horiz-adv-x="657" unicode="Ç" d="M308 -177l10 17q40 -21 74 -21q36 0 58.5 15t22.5 39q0 54 -82 54h-6v65q-147 6 -237.5 103t-90.5 255q0 154 94 256.5t244 102.5q132 0 211 -65l-15 -21q-72 57 -195 57q-137 0 -222.5 -94t-85.5 -236q0 -148 88.5 -239t229.5 -91q118 0 200 70l13 -23 q-36 -35 -94.5 -55.5t-120.5 -20.5v-47q98 -1 98 -72q0 -33 -28.5 -53t-76.5 -20q-44 0 -89 24z"/>
<glyph glyph-name="Egrave" horiz-adv-x="575" unicode="È" d="M355 740l-166 89l11 23l165 -94zM116 0v700h380v-28h-350v-302h320v-28h-320v-314h360v-28h-390z"/>
<glyph glyph-name="Eacute" horiz-adv-x="575" unicode="É" d="M421 829l-167 -89l-9 18l165 94zM116 0v700h380v-28h-350v-302h320v-28h-320v-314h360v-28h-390z"/>
<glyph glyph-name="Ecircumflex" horiz-adv-x="575" unicode="Ê" d="M140 757l166 94h4l167 -93l-15 -18l-154 85l-155 -85zM116 0v700h380v-28h-350v-302h320v-28h-320v-314h360v-28h-390z"/>
<glyph glyph-name="Edieresis" horiz-adv-x="575" unicode="Ë" d="M402 796q0 9 7 15t17 6q9 0 15.5 -6t6.5 -15q0 -10 -6.5 -16t-15.5 -6q-24 0 -24 22zM168 796q0 9 7 15t17 6q9 0 16 -6t7 -15q0 -10 -7 -16t-16 -6q-24 0 -24 22zM116 0v700h380v-28h-350v-302h320v-28h-320v-314h360v-28h-390z"/>
<glyph glyph-name="Igrave" horiz-adv-x="316" unicode="Ì" d="M173 740l-166 89l11 23l165 -94zM143 0v700h30v-700h-30z"/>
<glyph glyph-name="Iacute" horiz-adv-x="316" unicode="Í" d="M309 829l-167 -89l-9 18l165 94zM143 0v700h30v-700h-30z"/>
<glyph glyph-name="Icircumflex" horiz-adv-x="316" unicode="Î" d="M-10 757l166 94h4l167 -93l-15 -18l-154 85l-155 -85zM143 0v700h30v-700h-30z"/>
<glyph glyph-name="Idieresis" horiz-adv-x="316" unicode="Ï" d="M252 796q0 9 7 15t17 6q9 0 15.5 -6t6.5 -15q0 -10 -6.5 -16t-15.5 -6q-24 0 -24 22zM18 796q0 9 7 15t17 6q9 0 16 -6t7 -15q0 -10 -7 -16t-16 -6q-24 0 -24 22zM143 0v700h30v-700h-30z"/>
<glyph glyph-name="Eth" horiz-adv-x="761" unicode="Ð" d="M309 675q-32 0 -73.5 -1.5t-63.5 -1.5v-300h206v-27h-206v-317h38t36 -0.5t29.5 -1t21 -0.5h8.5q177 0 272.5 94.5t95.5 240.5q0 138 -90.5 226t-273.5 88zM10 345v27h132v328h11q25 0 74.5 1.5t83.5 1.5q102 0 179 -27.5t123 -76t68.5 -108.5t22.5 -130 q0 -158 -104.5 -260.5t-296.5 -102.5q-27 0 -77 1t-77 1h-7v345h-132z"/>
<glyph glyph-name="Ntilde" horiz-adv-x="799" unicode="Ñ" d="M252 772l-11 18q39 35 81 35q31 0 83 -24t78 -24q41 0 73 35l11 -19q-38 -41 -85 -41q-28 0 -81.5 23.5t-82.5 23.5q-33 0 -66 -27zM683 0h-24l-515 646v-646h-28v700h24l514 -648v648h29v-700z"/>
<glyph glyph-name="Ograve" horiz-adv-x="807" unicode="Ò" d="M475 740l-166 89l11 23l165 -94zM88 350q0 -141 90.5 -235.5t224.5 -94.5q135 0 225 94.5t90 235.5t-90.5 235.5t-224.5 94.5t-224.5 -94.5t-90.5 -235.5zM57 350q0 152 99 255.5t247 103.5q147 0 246.5 -102.5t99.5 -256.5q0 -153 -99.5 -256t-246.5 -103t-246.5 102.5 t-99.5 256.5z"/>
<glyph glyph-name="Oacute" horiz-adv-x="807" unicode="Ó" d="M523 829l-167 -89l-9 18l165 94zM88 350q0 -141 90.5 -235.5t224.5 -94.5q135 0 225 94.5t90 235.5t-90.5 235.5t-224.5 94.5t-224.5 -94.5t-90.5 -235.5zM57 350q0 152 99 255.5t247 103.5q147 0 246.5 -102.5t99.5 -256.5q0 -153 -99.5 -256t-246.5 -103t-246.5 102.5 t-99.5 256.5z"/>
<glyph glyph-name="Ocircumflex" horiz-adv-x="807" unicode="Ô" d="M239 757l166 94h4l167 -93l-15 -18l-154 85l-155 -85zM88 350q0 -141 90.5 -235.5t224.5 -94.5q135 0 225 94.5t90 235.5t-90.5 235.5t-224.5 94.5t-224.5 -94.5t-90.5 -235.5zM57 350q0 152 99 255.5t247 103.5q147 0 246.5 -102.5t99.5 -256.5q0 -153 -99.5 -256 t-246.5 -103t-246.5 102.5t-99.5 256.5z"/>
<glyph glyph-name="Otilde" horiz-adv-x="807" unicode="Õ" d="M254 772l-11 18q39 35 81 35q31 0 83 -24t78 -24q41 0 73 35l11 -19q-38 -41 -85 -41q-28 0 -81.5 23.5t-82.5 23.5q-33 0 -66 -27zM88 350q0 -141 90.5 -235.5t224.5 -94.5q135 0 225 94.5t90 235.5t-90.5 235.5t-224.5 94.5t-224.5 -94.5t-90.5 -235.5zM57 350 q0 152 99 255.5t247 103.5q147 0 246.5 -102.5t99.5 -256.5q0 -153 -99.5 -256t-246.5 -103t-246.5 102.5t-99.5 256.5z"/>
<glyph glyph-name="Odieresis" horiz-adv-x="807" unicode="Ö" d="M499 796q0 9 7 15t17 6q9 0 15.5 -6t6.5 -15q0 -10 -6.5 -16t-15.5 -6q-24 0 -24 22zM265 796q0 9 7 15t17 6q9 0 16 -6t7 -15q0 -10 -7 -16t-16 -6q-24 0 -24 22zM88 350q0 -141 90.5 -235.5t224.5 -94.5q135 0 225 94.5t90 235.5t-90.5 235.5t-224.5 94.5t-224.5 -94.5 t-90.5 -235.5zM57 350q0 152 99 255.5t247 103.5q147 0 246.5 -102.5t99.5 -256.5q0 -153 -99.5 -256t-246.5 -103t-246.5 102.5t-99.5 256.5z"/>
<glyph glyph-name="multiply" d="M130 506l18 18l145 -146l145 146l18 -18l-145 -146l147 -146l-18 -18l-147 146l-147 -146l-18 18l147 146z" unicode="×"/>
<glyph glyph-name="Oslash" horiz-adv-x="807" unicode="Ø" d="M88 350q0 -124 72 -215l465 453q-90 92 -222 92q-134 0 -224.5 -94.5t-90.5 -235.5zM718 350q0 128 -76 220l-464 -454q90 -96 225 -96t225 94.5t90 235.5zM57 350q0 152 99 255.5t247 103.5q144 0 244 -100l51 50l18 -17l-52 -51q85 -101 85 -241q0 -153 -99.5 -256 t-246.5 -103t-247 103l-50 -48l-18 19l50 49q-81 98 -81 236z"/>
<glyph glyph-name="Ugrave" horiz-adv-x="751" unicode="Ù" d="M434 740l-166 89l11 23l165 -94zM645 700v-406q0 -151 -73.5 -226t-186.5 -75q-124 0 -201.5 80t-77.5 228v399h30v-395q0 -135 69 -209.5t180 -74.5q103 0 166.5 70t63.5 210v399h30z"/>
<glyph glyph-name="Uacute" horiz-adv-x="751" unicode="Ú" d="M492 829l-167 -89l-9 18l165 94zM645 700v-406q0 -151 -73.5 -226t-186.5 -75q-124 0 -201.5 80t-77.5 228v399h30v-395q0 -135 69 -209.5t180 -74.5q103 0 166.5 70t63.5 210v399h30z"/>
<glyph glyph-name="Ucircumflex" horiz-adv-x="751" unicode="Û" d="M207 757l166 94h4l167 -93l-15 -18l-154 85l-155 -85zM645 700v-406q0 -151 -73.5 -226t-186.5 -75q-124 0 -201.5 80t-77.5 228v399h30v-395q0 -135 69 -209.5t180 -74.5q103 0 166.5 70t63.5 210v399h30z"/>
<glyph glyph-name="Udieresis" horiz-adv-x="751" unicode="Ü" d="M467 796q0 9 7 15t17 6q9 0 15.5 -6t6.5 -15q0 -10 -6.5 -16t-15.5 -6q-24 0 -24 22zM233 796q0 9 7 15t17 6q9 0 16 -6t7 -15q0 -10 -7 -16t-16 -6q-24 0 -24 22zM645 700v-406q0 -151 -73.5 -226t-186.5 -75q-124 0 -201.5 80t-77.5 228v399h30v-395q0 -135 69 -209.5 t180 -74.5q103 0 166.5 70t63.5 210v399h30z"/>
<glyph glyph-name="Yacute" horiz-adv-x="567" unicode="Ý" d="M407 829l-167 -89l-9 18l165 94zM550 700l-253 -389v-311h-29v311l-251 389h35l231 -361l233 361h34z"/>
<glyph glyph-name="Thorn" horiz-adv-x="575" unicode="Þ" d="M277 565q-71 0 -131 -2v-351q72 -5 123 -5q107 0 162.5 50.5t55.5 130.5t-51 128.5t-159 48.5zM146 0h-30v700h30v-109q20 0 69 1t61 1q69 0 118 -17.5t74.5 -48t37 -65t11.5 -75.5q0 -88 -61 -148.5t-185 -60.5q-53 0 -125 5v-183z"/>
<glyph glyph-name="germandbls" horiz-adv-x="539" unicode="ß" d="M454 144q0 38 -22 67.5t-53 49t-62 38.5t-53 46t-22 61q0 29 17.5 54.5t38.5 41.5t38.5 40.5t17.5 52.5q0 38 -30.5 62.5t-72.5 24.5q-66 0 -97.5 -41.5t-31.5 -130.5v-513h-29v522q0 190 161 190q55 0 92.5 -31t37.5 -79q0 -27 -11.5 -49.5t-28 -38t-33.5 -30 t-28.5 -32.5t-11.5 -38q0 -33 22 -58t53.5 -43t62.5 -37.5t53 -52t22 -75.5q0 -67 -42.5 -110.5t-104.5 -43.5q-48 0 -84 22.5t-54 52.5l13 20q48 -68 120 -68q49 0 85.5 35.5t36.5 90.5z"/>
<glyph glyph-name="agrave" horiz-adv-x="457" unicode="à" d="M257 552l-112 141l21 17l109 -146zM193 22q42 0 76 14.5t50 30.5t35 40v90q-56 40 -134 40q-58 0 -100.5 -28t-42.5 -83q0 -48 33 -76t83 -28zM91 394l-9 24q65 41 138 41q87 0 124.5 -45t37.5 -133v-281h-28v78q-61 -83 -167 -83q-63 0 -101.5 35.5t-38.5 93.5 q0 65 47.5 101t123.5 36q84 0 136 -37q0 37 -1 59t-5 49.5t-13 43t-24 30t-38.5 20.5t-55.5 6q-61 0 -126 -38z"/>
<glyph glyph-name="aacute" horiz-adv-x="457" unicode="á" d="M314 693l-112 -141l-18 12l109 146zM193 22q42 0 76 14.5t50 30.5t35 40v90q-56 40 -134 40q-58 0 -100.5 -28t-42.5 -83q0 -48 33 -76t83 -28zM91 394l-9 24q65 41 138 41q87 0 124.5 -45t37.5 -133v-281h-28v78q-61 -83 -167 -83q-63 0 -101.5 35.5t-38.5 93.5 q0 65 47.5 101t123.5 36q84 0 136 -37q0 37 -1 59t-5 49.5t-13 43t-24 30t-38.5 20.5t-55.5 6q-61 0 -126 -38z"/>
<glyph glyph-name="acircumflex" horiz-adv-x="457" unicode="â" d="M231 708l120 -131l-15 -18l-107 114l-108 -113l-16 17l122 131h4zM193 22q42 0 76 14.5t50 30.5t35 40v90q-56 40 -134 40q-58 0 -100.5 -28t-42.5 -83q0 -48 33 -76t83 -28zM91 394l-9 24q65 41 138 41q87 0 124.5 -45t37.5 -133v-281h-28v78q-61 -83 -167 -83 q-63 0 -101.5 35.5t-38.5 93.5q0 65 47.5 101t123.5 36q84 0 136 -37q0 37 -1 59t-5 49.5t-13 43t-24 30t-38.5 20.5t-55.5 6q-61 0 -126 -38z"/>
<glyph glyph-name="atilde" horiz-adv-x="457" unicode="ã" d="M96 586l-13 15q51 46 93 46q24 0 56.5 -24t52.5 -24q31 0 76 41l12 -16q-50 -49 -91 -49q-22 0 -54.5 23.5t-55.5 23.5q-32 0 -76 -36zM193 22q42 0 76 14.5t50 30.5t35 40v90q-56 40 -134 40q-58 0 -100.5 -28t-42.5 -83q0 -48 33 -76t83 -28zM91 394l-9 24 q65 41 138 41q87 0 124.5 -45t37.5 -133v-281h-28v78q-61 -83 -167 -83q-63 0 -101.5 35.5t-38.5 93.5q0 65 47.5 101t123.5 36q84 0 136 -37q0 37 -1 59t-5 49.5t-13 43t-24 30t-38.5 20.5t-55.5 6q-61 0 -126 -38z"/>
<glyph glyph-name="adieresis" horiz-adv-x="457" unicode="ä" d="M306 626q0 8 6.5 14.5t15.5 6.5q8 0 14.5 -6.5t6.5 -14.5q0 -10 -6 -16.5t-15 -6.5t-15.5 6.5t-6.5 16.5zM95 626q0 8 6.5 14.5t15.5 6.5q8 0 14 -6.5t6 -14.5q0 -10 -6 -16.5t-14 -6.5q-9 0 -15.5 6.5t-6.5 16.5zM193 22q42 0 76 14.5t50 30.5t35 40v90q-56 40 -134 40 q-58 0 -100.5 -28t-42.5 -83q0 -48 33 -76t83 -28zM91 394l-9 24q65 41 138 41q87 0 124.5 -45t37.5 -133v-281h-28v78q-61 -83 -167 -83q-63 0 -101.5 35.5t-38.5 93.5q0 65 47.5 101t123.5 36q84 0 136 -37q0 37 -1 59t-5 49.5t-13 43t-24 30t-38.5 20.5t-55.5 6 q-61 0 -126 -38z"/>
<glyph glyph-name="aring" horiz-adv-x="457" unicode="å" d="M145 615q0 -33 22 -55.5t55 -22.5q32 0 55 22.5t23 55.5q0 32 -23 55t-55 23q-33 0 -55 -22.5t-22 -55.5zM124 614q0 41 28.5 69.5t69.5 28.5t70 -28.5t29 -69.5q0 -40 -29 -68t-70 -28t-69.5 28t-28.5 68zM193 22q42 0 76 14.5t50 30.5t35 40v90q-56 40 -134 40 q-58 0 -100.5 -28t-42.5 -83q0 -48 33 -76t83 -28zM91 394l-9 24q65 41 138 41q87 0 124.5 -45t37.5 -133v-281h-28v78q-61 -83 -167 -83q-63 0 -101.5 35.5t-38.5 93.5q0 65 47.5 101t123.5 36q84 0 136 -37q0 37 -1 59t-5 49.5t-13 43t-24 30t-38.5 20.5t-55.5 6 q-61 0 -126 -38z"/>
<glyph glyph-name="ae" horiz-adv-x="801" unicode="æ" d="M193 22q42 0 76 14.5t50 30.5t35 40v118q-82 12 -134 12q-58 0 -100.5 -28t-42.5 -83q0 -48 33 -76t83 -28zM382 281v-31h339q0 84 -48 133t-129 49q-116 0 -167 -94q5 -30 5 -57zM220 459q117 0 148 -86q61 86 180 86q88 0 145 -56t57 -146q0 -13 -2 -31h-366v-113 q54 -95 181 -95q95 0 152 62l10 -21q-28 -33 -72.5 -50.5t-91.5 -17.5q-127 0 -193 90q-73 -86 -177 -86q-66 0 -105 35t-39 94q0 65 47.5 101t123.5 36q74 0 136 -11q0 4 0.5 13t0.5 14q0 79 -31.5 117t-106.5 38q-61 0 -126 -38l-9 24q65 41 138 41z"/>
<glyph glyph-name="ccedilla" horiz-adv-x="491" unicode="ç" d="M189 -178l10 17q38 -20 73 -20q36 0 58.5 15t22.5 39q0 54 -82 54h-6v65q-96 7 -154.5 70t-58.5 163q0 98 63.5 166t156.5 68q113 0 172 -55l-14 -23q-58 51 -153 51q-81 0 -138.5 -59.5t-57.5 -147.5q0 -94 58.5 -150.5t149.5 -56.5q45 0 85 18t65 47l14 -19 q-28 -35 -72.5 -54t-93.5 -19h-3v-47q97 -1 97 -72q0 -33 -28.5 -53t-77.5 -20q-38 0 -86 23z"/>
<glyph glyph-name="egrave" horiz-adv-x="527" unicode="è" d="M286 552l-112 141l21 17l109 -146zM271 432q-84 0 -134 -50.5t-56 -131.5h366q1 84 -47 133t-129 49zM441 80l11 -21q-28 -33 -72.5 -50.5t-91.5 -17.5q-104 0 -170 64t-66 170q0 103 58 168.5t165 65.5q88 0 144.5 -55.5t56.5 -146.5q0 -13 -2 -31h-391q1 -96 57 -152 t149 -56q95 0 152 62z"/>
<glyph glyph-name="eacute" horiz-adv-x="527" unicode="é" d="M377 693l-112 -141l-18 12l109 146zM271 432q-84 0 -134 -50.5t-56 -131.5h366q1 84 -47 133t-129 49zM441 80l11 -21q-28 -33 -72.5 -50.5t-91.5 -17.5q-104 0 -170 64t-66 170q0 103 58 168.5t165 65.5q88 0 144.5 -55.5t56.5 -146.5q0 -13 -2 -31h-391q1 -96 57 -152 t149 -56q95 0 152 62z"/>
<glyph glyph-name="ecircumflex" horiz-adv-x="527" unicode="ê" d="M276 708l120 -131l-15 -18l-107 114l-108 -113l-16 17l122 131h4zM271 432q-84 0 -134 -50.5t-56 -131.5h366q1 84 -47 133t-129 49zM441 80l11 -21q-28 -33 -72.5 -50.5t-91.5 -17.5q-104 0 -170 64t-66 170q0 103 58 168.5t165 65.5q88 0 144.5 -55.5t56.5 -146.5 q0 -13 -2 -31h-391q1 -96 57 -152t149 -56q95 0 152 62z"/>
<glyph glyph-name="edieresis" horiz-adv-x="527" unicode="ë" d="M349 626q0 8 6.5 14.5t15.5 6.5q8 0 14.5 -6.5t6.5 -14.5q0 -10 -6 -16.5t-15 -6.5t-15.5 6.5t-6.5 16.5zM138 626q0 8 6.5 14.5t15.5 6.5q8 0 14 -6.5t6 -14.5q0 -10 -6 -16.5t-14 -6.5q-9 0 -15.5 6.5t-6.5 16.5zM271 432q-84 0 -134 -50.5t-56 -131.5h366 q1 84 -47 133t-129 49zM441 80l11 -21q-28 -33 -72.5 -50.5t-91.5 -17.5q-104 0 -170 64t-66 170q0 103 58 168.5t165 65.5q88 0 144.5 -55.5t56.5 -146.5q0 -13 -2 -31h-391q1 -96 57 -152t149 -56q95 0 152 62z"/>
<glyph glyph-name="igrave" horiz-adv-x="255" unicode="ì" d="M134 552l-112 141l21 17l109 -146zM113 0v450h28v-450h-28z"/>
<glyph glyph-name="iacute" horiz-adv-x="255" unicode="í" d="M230 693l-112 -141l-18 12l109 146zM113 0v450h28v-450h-28z"/>
<glyph glyph-name="icircumflex" horiz-adv-x="255" unicode="î" d="M131 708l120 -131l-15 -18l-107 114l-108 -113l-16 17l122 131h4zM113 0v450h28v-450h-28z"/>
<glyph glyph-name="idieresis" horiz-adv-x="255" unicode="ï" d="M212 626q0 8 6.5 14.5t15.5 6.5q8 0 14.5 -6.5t6.5 -14.5q0 -10 -6 -16.5t-15 -6.5t-15.5 6.5t-6.5 16.5zM1 626q0 8 6.5 14.5t15.5 6.5q8 0 14 -6.5t6 -14.5q0 -10 -6 -16.5t-14 -6.5q-9 0 -15.5 6.5t-6.5 16.5zM113 0v450h28v-450h-28z"/>
<glyph glyph-name="eth" horiz-adv-x="569" unicode="ð" d="M81 225q0 -91 57 -149t146 -58q90 0 146.5 64t56.5 172v5q-9 67 -64.5 120t-138.5 53q-89 0 -146 -58t-57 -149zM208 542l-10 24l113 60q-52 45 -121 73l31 10q60 -26 114 -70l104 55l10 -24l-93 -50q76 -70 118.5 -166t42.5 -198q0 -121 -64.5 -193t-168.5 -72 q-102 0 -167 66t-65 168t65 168t167 66q65 0 116.5 -34t78.5 -94q-24 162 -147 277z"/>
<glyph glyph-name="ntilde" horiz-adv-x="553" unicode="ñ" d="M143 586l-13 15q51 46 93 46q24 0 56.5 -24t52.5 -24q31 0 76 41l12 -16q-50 -49 -91 -49q-22 0 -54.5 23.5t-55.5 23.5q-32 0 -76 -36zM85 0v450h29v-68q28 32 76.5 54t96.5 22q96 0 143 -49.5t47 -154.5v-254h-28v248q0 93 -41 138t-126 45q-50 0 -97 -23t-71 -54v-354 h-29z"/>
<glyph glyph-name="ograve" horiz-adv-x="569" unicode="ò" d="M302 552l-112 141l21 17l109 -146zM81 225q0 -91 57 -149t146 -58t146 58t57 149t-57 149t-146 58t-146 -58t-57 -149zM52 225q0 102 65 168t167 66t167.5 -66t65.5 -168t-65.5 -168t-167.5 -66t-167 66t-65 168z"/>
<glyph glyph-name="oacute" horiz-adv-x="569" unicode="ó" d="M379 693l-112 -141l-18 12l109 146zM81 225q0 -91 57 -149t146 -58t146 58t57 149t-57 149t-146 58t-146 -58t-57 -149zM52 225q0 102 65 168t167 66t167.5 -66t65.5 -168t-65.5 -168t-167.5 -66t-167 66t-65 168z"/>
<glyph glyph-name="ocircumflex" horiz-adv-x="569" unicode="ô" d="M286 708l120 -131l-15 -18l-107 114l-108 -113l-16 17l122 131h4zM81 225q0 -91 57 -149t146 -58t146 58t57 149t-57 149t-146 58t-146 -58t-57 -149zM52 225q0 102 65 168t167 66t167.5 -66t65.5 -168t-65.5 -168t-167.5 -66t-167 66t-65 168z"/>
<glyph glyph-name="otilde" horiz-adv-x="569" unicode="õ" d="M151 586l-13 15q51 46 93 46q24 0 56.5 -24t52.5 -24q31 0 76 41l12 -16q-50 -49 -91 -49q-22 0 -54.5 23.5t-55.5 23.5q-32 0 -76 -36zM81 225q0 -91 57 -149t146 -58t146 58t57 149t-57 149t-146 58t-146 -58t-57 -149zM52 225q0 102 65 168t167 66t167.5 -66 t65.5 -168t-65.5 -168t-167.5 -66t-167 66t-65 168z"/>
<glyph glyph-name="odieresis" horiz-adv-x="569" unicode="ö" d="M370 626q0 8 6.5 14.5t15.5 6.5q8 0 14.5 -6.5t6.5 -14.5q0 -10 -6 -16.5t-15 -6.5t-15.5 6.5t-6.5 16.5zM159 626q0 8 6.5 14.5t15.5 6.5q8 0 14 -6.5t6 -14.5q0 -10 -6 -16.5t-14 -6.5q-9 0 -15.5 6.5t-6.5 16.5zM81 225q0 -91 57 -149t146 -58t146 58t57 149t-57 149 t-146 58t-146 -58t-57 -149zM52 225q0 102 65 168t167 66t167.5 -66t65.5 -168t-65.5 -168t-167.5 -66t-167 66t-65 168z"/>
<glyph glyph-name="divide" d="M73 347v26h440v-26h-440zM271 146q0 8 6.5 14.5t16.5 6.5q9 0 15 -6.5t6 -14.5q0 -9 -6 -16t-15 -7q-10 0 -16.5 7t-6.5 16zM271 575q0 9 6.5 15t16.5 6q9 0 15 -6.5t6 -14.5q0 -9 -6 -16t-15 -7q-10 0 -16.5 7t-6.5 16z" unicode="÷"/>
<glyph glyph-name="oslash" horiz-adv-x="569" unicode="ø" d="M487 225q0 76 -43 132l-293 -294q54 -45 133 -45q89 0 146 58t57 149zM81 225q0 -87 52 -144l295 295q-58 56 -144 56q-89 0 -146 -58t-57 -149zM52 225q0 102 65 168t167 66q98 0 164 -63l55 55l16 -18l-55 -55q53 -64 53 -153q0 -102 -65.5 -168t-167.5 -66 q-91 0 -152 53l-57 -57l-17 19l55 55q-61 64 -61 164z"/>
<glyph glyph-name="ugrave" horiz-adv-x="547" unicode="ù" d="M291 552l-112 141l21 17l109 -146zM462 450v-450h-28v78q-29 -36 -79 -61.5t-102 -25.5q-178 0 -178 203v256h29v-249q0 -93 38 -138t120 -45q51 0 99 27.5t73 61.5v343h28z"/>
<glyph glyph-name="uacute" horiz-adv-x="547" unicode="ú" d="M369 693l-112 -141l-18 12l109 146zM462 450v-450h-28v78q-29 -36 -79 -61.5t-102 -25.5q-178 0 -178 203v256h29v-249q0 -93 38 -138t120 -45q51 0 99 27.5t73 61.5v343h28z"/>
<glyph glyph-name="ucircumflex" horiz-adv-x="547" unicode="û" d="M271 708l120 -131l-15 -18l-107 114l-108 -113l-16 17l122 131h4zM462 450v-450h-28v78q-29 -36 -79 -61.5t-102 -25.5q-178 0 -178 203v256h29v-249q0 -93 38 -138t120 -45q51 0 99 27.5t73 61.5v343h28z"/>
<glyph glyph-name="udieresis" horiz-adv-x="547" unicode="ü" d="M358 626q0 8 6.5 14.5t15.5 6.5q8 0 14.5 -6.5t6.5 -14.5q0 -10 -6 -16.5t-15 -6.5t-15.5 6.5t-6.5 16.5zM147 626q0 8 6.5 14.5t15.5 6.5q8 0 14 -6.5t6 -14.5q0 -10 -6 -16.5t-14 -6.5q-9 0 -15.5 6.5t-6.5 16.5zM462 450v-450h-28v78q-29 -36 -79 -61.5t-102 -25.5 q-178 0 -178 203v256h29v-249q0 -93 38 -138t120 -45q51 0 99 27.5t73 61.5v343h28z"/>
<glyph glyph-name="yacute" horiz-adv-x="472" unicode="ý" d="M330 693l-112 -141l-18 12l109 146zM455 450l-184 -450q-48 -117 -84.5 -158.5t-82.5 -41.5q-32 0 -70 19l10 22q33 -15 56 -15q39 0 70 35t64 115l10 24l-227 450h33l173 -345q19 -36 35 -73q9 25 29 75l136 343h32z"/>
<glyph glyph-name="thorn" horiz-adv-x="552" unicode="þ" d="M281 432q-51 0 -97.5 -22.5t-69.5 -53.5v-290q67 -48 157 -48q89 0 144.5 59t55.5 152q0 92 -50.5 147.5t-139.5 55.5zM85 -200v900h29v-314q28 32 75.5 52.5t97.5 20.5q99 0 156.5 -63t57.5 -164q0 -104 -63.5 -172.5t-165.5 -68.5q-98 0 -158 45v-236h-29z"/>
</font>
</defs>
</svg>
